<?xml version="1.0" standalone="no"?>
<!DOCTYPE svg PUBLIC "-//W3C//DTD SVG 20010904//EN"
 "http://www.w3.org/TR/2001/REC-SVG-20010904/DTD/svg10.dtd">
<svg version="1.0" xmlns="http://www.w3.org/2000/svg"
 width="225.000000pt" height="225.000000pt" viewBox="0 0 225.000000 225.000000"
 preserveAspectRatio="xMidYMid meet">

<g transform="translate(0.000000,225.000000) scale(0.100000,-0.100000)"
fill="#cf227a" stroke="none">
<path d="M571 2094 c-154 -41 -276 -164 -317 -318 -21 -78 -20 -700 2 -781 28
-110 99 -204 198 -264 31 -19 59 -31 62 -28 3 3 1 31 -5 63 -6 32 -11 78 -11
104 0 35 -7 55 -29 86 -50 68 -53 91 -49 454 3 321 4 337 25 375 25 47 74 95
123 121 33 18 67 19 550 19 l516 0 49 -26 c56 -28 109 -91 125 -147 6 -24 10
-268 10 -680 0 -612 -1 -645 -19 -680 -24 -46 -67 -72 -118 -72 -45 0 -82 22
-418 247 l-211 140 -66 -62 -66 -63 156 -105 c87 -58 224 -150 305 -206 167
-114 223 -136 321 -129 80 7 149 41 213 104 43 42 55 64 73 123 22 71 22 76
17 714 -3 400 -9 660 -16 690 -36 162 -170 291 -339 326 -86 18 -1012 14
-1081 -5z"/>
<path d="M817 1719 c-118 -15 -176 -58 -211 -152 -16 -44 -20 -88 -24 -288 -7
-376 17 -579 75 -637 22 -22 30 -24 84 -19 81 7 138 38 206 110 113 119 137
140 192 166 55 25 60 26 241 23 161 -2 189 0 220 15 44 23 76 79 90 162 14 81
14 404 0 467 -23 100 -70 138 -192 154 -90 12 -588 11 -681 -1z m640 -183 c60
-25 73 -59 73 -193 0 -119 -15 -167 -64 -213 -27 -24 -34 -25 -194 -30 -137
-5 -174 -9 -207 -25 -22 -10 -87 -68 -145 -127 -58 -59 -113 -108 -123 -108
-10 0 -23 12 -29 28 -17 38 -24 553 -8 604 22 75 85 88 420 84 196 -2 242 -6
277 -20z"/>
<path d="M686 450 c-84 -26 -131 -133 -91 -209 73 -141 285 -98 285 57 0 24
-7 59 -16 78 -28 58 -113 94 -178 74z"/>
</g>
</svg>
